<svg width="1920" height="970" viewBox="0 0 1920 970" fill="none" xmlns="http://www.w3.org/2000/svg">
<g clip-path="url(#clip0_202_3)">
<path d="M1922 0H0V971H1922V0Z" fill="#141414"/>
<path opacity="0.8" d="M1451.92 274.923C1451.92 274.923 245.462 569.017 490.924 1138.03M490.924 1138.03C736.386 1707.05 -235.038 1000.57 -470.076 2001.15C-705.114 3001.72 245.462 569.017 490.924 1138.03Z" stroke="#005EB5" stroke-width="2" stroke-linecap="round"/>
<path opacity="0.8" d="M1296.8 152.323C1296.8 152.323 1128.9 -355.394 2257.8 -710.789C3386.71 -1066.18 1609.4 -786.95 3218.8 -1573.9C4828.21 -2360.85 2089.9 -1218.51 4179.8 -2437.01" stroke="#ADD8E6" stroke-width="2" stroke-linecap="round"/>
<path opacity="0.8" d="M814.898 189.474C814.898 189.474 -73.0513 526.293 -146.102 1052.59C-219.154 1578.88 407.449 94.7371 814.898 189.474ZM814.898 189.474C1222.35 284.211 887.949 -336.818 1775.9 -673.637" stroke="#2584A3" stroke-width="2" stroke-linecap="round"/>
<path opacity="0.8" d="M1604.98 102.167C1604.98 102.167 1282.99 -380.472 2565.98 -760.944C3848.96 -1141.42 802.488 51.0837 1604.98 102.167ZM1604.98 102.167C2407.46 153.251 321.988 482.639 643.976 965.279" stroke="#005EB5" stroke-width="2" stroke-linecap="round"/>
<path opacity="0.8" d="M1565.68 291.641C1565.68 291.641 1263.34 -285.735 2526.68 -571.47C3790.02 -857.204 1743.84 -717.291 3487.68 -1434.58C5231.52 -2151.87 2224.34 -1148.85 4448.68 -2297.69" stroke="#ADD8E6" stroke-width="2" stroke-linecap="round"/>
<path opacity="0.8" d="M936.925 874.926C936.925 874.926 -12.0375 869.018 -24.0748 1738.04C-36.1121 2607.05 -492.537 1300.57 -985.075 2601.15C-1477.61 3901.72 -973.037 1732.13 -1946.07 3464.26" stroke="#2584A3" stroke-width="2" stroke-linecap="round"/>
<path opacity="0.8" d="M765.258 884.213C765.258 884.213 -97.8709 873.662 -195.741 1747.32C-293.612 2620.99 -578.371 1305.22 -1156.74 2610.44C-1735.11 3915.65 -1058.87 1736.77 -2117.74 3473.55" stroke="#005EB5" stroke-width="2" stroke-linecap="round"/>
<path opacity="0.8" d="M788.01 945.514C788.01 945.514 -86.4949 904.313 -172.99 1808.63M-172.99 1808.63C-259.485 2712.94 -566.995 1335.87 -1133.99 2671.74C-1700.98 4007.6 -86.4949 904.313 -172.99 1808.63Z" stroke="#ADD8E6" stroke-width="2" stroke-linecap="round"/>
<path opacity="0.8" d="M111.686 586.999C111.686 586.999 536.343 -138.056 1072.69 -276.112M111.686 586.999C55.8432 293.499 1609.03 -414.169 1072.69 -276.112M111.686 586.999C167.53 880.498 536.343 -138.056 1072.69 -276.112" stroke="#2584A3" stroke-width="2" stroke-linecap="round"/>
<path opacity="0.8" d="M800.42 308.36C800.42 308.36 880.71 -277.375 1761.42 -554.751M1761.42 -554.751C2642.13 -832.126 1361.21 -708.931 2722.42 -1417.86C4083.63 -2126.79 880.71 -277.375 1761.42 -554.751Z" stroke="#005EB5" stroke-width="2" stroke-linecap="round"/>
<path opacity="0.8" d="M1900.74 139.319C1900.74 139.319 469.869 501.215 939.738 1002.43C1409.61 1503.65 950.369 69.6597 1900.74 139.319ZM1900.74 139.319C2851.11 208.979 1430.87 -361.896 2861.74 -723.792" stroke="#ADD8E6" stroke-width="2" stroke-linecap="round"/>
<path opacity="0.8" d="M1731.14 425.388C1731.14 425.388 1346.07 -218.861 2692.14 -437.723C4038.21 -656.584 865.57 212.694 1731.14 425.388ZM1731.14 425.388C2596.71 638.083 385.07 644.25 770.14 1288.5" stroke="#2584A3" stroke-width="2" stroke-linecap="round"/>
<path opacity="0.8" d="M421.927 224.769C421.927 224.769 691.463 -319.171 1382.93 -638.343C2074.39 -957.514 210.963 112.384 421.927 224.769ZM421.927 224.769C632.89 337.153 -269.537 543.94 -539.073 1087.88" stroke="#005EB5" stroke-width="2" stroke-linecap="round"/>
<path opacity="0.8" d="M2337.68 382.05C2337.68 382.05 1407.33 626.918 1376.68 1245.16M2337.68 382.05C1887.83 195.362 1346.02 1863.4 1376.68 1245.16M2337.68 382.05C2787.52 568.738 1407.33 626.918 1376.68 1245.16" stroke="#ADD8E6" stroke-width="2" stroke-linecap="round"/>
</g>
<defs>
<clipPath id="clip0_202_3">
<rect width="1922" height="971" fill="white"/>
</clipPath>
</defs>
</svg>
